<?xml version="1.0" standalone="no"?>
<!DOCTYPE svg PUBLIC "-//W3C//DTD SVG 20010904//EN"
 "http://www.w3.org/TR/2001/REC-SVG-20010904/DTD/svg10.dtd">
<svg version="1.0" xmlns="http://www.w3.org/2000/svg"
 width="80.000000pt" height="80.000000pt" viewBox="0 0 80.000000 80.000000"
 preserveAspectRatio="xMidYMid meet">
<metadata>
Created by potrace 1.11, written by Peter Selinger 2001-2013
</metadata>
<g transform="translate(0.000000,80.000000) scale(0.100000,-0.100000)"
fill="#000000" stroke="none">
<path d="M330 722 c0 -7 5 -12 10 -12 18 0 10 -45 -13 -70 -12 -15 -43 -41
-68 -59 -83 -59 -98 -133 -49 -247 31 -71 54 -93 93 -87 18 3 40 9 49 14 15 8
17 5 16 -25 -1 -38 54 -141 81 -151 12 -5 11 -2 -2 13 -9 10 -17 24 -17 30 0
16 50 65 90 90 19 11 49 35 65 52 27 29 30 37 30 98 0 57 -6 77 -34 130 -24
44 -40 62 -55 63 -36 2 -70 -3 -88 -12 -14 -7 -17 -4 -16 19 1 16 -9 50 -22
75 -24 48 -70 100 -70 79z m135 -378 c-22 -18 -43 -34 -46 -34 -3 0 -34 26
-69 58 l-62 58 47 41 46 40 62 -64 62 -65 -40 -34z"/>
</g>
</svg>
